<svg width="16" height="16" viewBox="0 0 16 16" fill="none" xmlns="http://www.w3.org/2000/svg">
<path d="M11.7051 0.722684L4.46415 2.4524C-0.402335 3.61132 -0.628613 6.19769 3.96269 8.18406L5.35116 8.78591C5.75515 8.96482 6.05016 9.3164 6.15619 9.74531L6.50279 11.2112C7.66172 16.0777 10.2421 16.309 12.2345 11.7127L15.1953 4.88207C16.5235 1.81786 14.9534 -0.0532633 11.7051 0.722684ZM11.9005 4.86437L8.68261 7.56447C8.43829 7.76948 8.06567 7.73688 7.86067 7.49256C7.65566 7.24824 7.68826 6.87563 7.93258 6.67062L11.1504 3.97052C11.3948 3.76551 11.7674 3.79811 11.9724 4.04243C12.1774 4.28674 12.1448 4.65936 11.9005 4.86437Z" fill="white"/>
</svg>
